<svg height="640" preserveAspectRatio="xMidYMid meet" viewBox="0 0 640 640" width="640" xmlns="http://www.w3.org/2000/svg" xmlns:xlink="http://www.w3.org/1999/xlink"><defs><path id="a" d="m320.01 322.32v311.78l-315.61-157.05v-312.98z"/><path id="b" d="m635.62 163.43v313.62l-315.61 157.13v-311.86z"/><path id="c" d="m320.01 5.82 315.61 157.61-315.61 158.89-315.61-158.89z"/><path id="d" d="m171.45 118.55h291.09v78.51h-291.09z"/></defs><use fill="#fff" xlink:href="#a"/><use fill="none" stroke="#71224e" xlink:href="#a"/><path d="m4.4 163.43 315.61 158.89 315.61-158.89" fill="none" stroke="#000" stroke-width="3"/><path d="m320.01 634.1v-314.1" fill="none" stroke="#000" stroke-width="3"/><use fill="#98be7e" xlink:href="#b"/><use fill="none" stroke="#000" stroke-width="3" xlink:href="#b"/><path d="m635.62 412.03-315.61 158.88-315.61-158.88" fill="none" stroke="#000"/><path d="m635.62 333.5-315.61 158.89-315.61-158.89" fill="none" stroke="#000"/><use fill="#c1d6b0" xlink:href="#c"/><g fill="none"><use stroke="#000" stroke-width="3" xlink:href="#c"/><path d="m635.62 254.98-315.61 158.88-315.61-158.88" stroke="#000"/><path d="m482.5 551.88-2.47-309.71-305.09-163.04" stroke="#000"/><path d="m407.01 591.3-2.52-309.71-310.61-163.04" stroke="#000"/><path d="m559.74 513.36-2.47-309.71-305.09-163.04" stroke="#000"/><path d="m468.65 79.13-312.71 163.74v309.01" stroke="#000"/><path d="m546.23 117.66-312.71 163.74v309.01" stroke="#000"/><path d="m385.04 38.62-303.85 165.43v312.2" stroke="#000"/><path d="m322.97 5.82 312.65 157.61v313.62l-315.61 157.13-315.61-157.13v-313.62z" stroke="#000" stroke-width="4"/></g><use fill="#fff" xlink:href="#d"/><use fill="none" stroke="#000" stroke-width="2" xlink:href="#d"/><text style="font-size:53;font-family:Numans;font-weight:400;letter-spacing:0;alignment-baseline:before-edge;dominant-baseline:text-before-edge" transform="translate(-39.826674 -122.091677)" x="303.33" y="250.95"><tspan alignment-baseline="before-edge" dominant-baseline="text-before-edge" dy="0.9em" x="303.33">DCC</tspan></text></svg>